<?xml version="1.0" encoding="utf-8"?>
<!-- Generator: Adobe Illustrator 19.0.0, SVG Export Plug-In . SVG Version: 6.00 Build 0)  -->
<svg version="1.1" id="Layer_1" xmlns="http://www.w3.org/2000/svg" xmlns:xlink="http://www.w3.org/1999/xlink" x="0px" y="0px"
	 viewBox="-296 388 18 18" style="enable-background:new -296 388 18 18;" xml:space="preserve">
<style type="text/css">
	.st0{fill:#FFFFFF;}
</style>
<g>
	<path class="st0" d="M-281.3,397.3c0-3.1-2.5-5.6-5.6-5.6c-3.1,0-5.6,2.5-5.6,5.6c0,1.3,0.4,2.5,1.1,3.4l2.6-7.5h5l-0.2,0.5
		l-0.4,1.3h-3l-0.4,1.2h2l0,0.1h0l-0.5,1.5h0l-0.1,0.3h-2l-0.4,1.2h7.3C-281.4,398.6-281.3,397.9-281.3,397.3z"/>
	<path class="st0" d="M-291,401c1,1.1,2.5,1.8,4.1,1.8c1.6,0,3.1-0.7,4.2-1.8l-6.8,0H-291z"/>
	<path class="st0" d="M-278.8,397.3c0-4.2-3.3-7.7-7.4-8l-0.1,0l0.6,0.7l-0.6,0.7l0.1,0c3.4,0.3,6.1,3.2,6.1,6.6
		c0,1-0.2,1.9-0.6,2.8l-0.6-0.3l0.6,1.8l0,0l1.9-0.4l-0.6-0.4C-279.1,399.7-278.8,398.5-278.8,397.3z"/>
	<path class="st0" d="M-294,400.8l0.3-0.9l0.9,0.2l0-0.1c-0.4-0.9-0.6-1.8-0.6-2.8c0-3.4,2.6-6.3,6-6.6v0.7l1.3-1.4l-1.3-1.4v0.7
		c-4.2,0.3-7.4,3.8-7.4,8c0,1.2,0.3,2.4,0.8,3.5L-294,400.8z"/>
	<path class="st0" d="M-281.4,400.9L-281.4,400.9c-1.3,1.9-3.3,2.9-5.5,2.9c-2.2,0-4.2-1.1-5.4-2.8l0.6-0.3l-1.9-0.4l-0.6,1.8
		l0.6-0.4c1.5,2.2,4,3.5,6.6,3.5c2.7,0,5.1-1.3,6.6-3.5l0.1-0.1l-0.9,0.2L-281.4,400.9z"/>
</g>
</svg>
